<svg width="21" height="22" viewBox="0 0 21 22" fill="none" xmlns="http://www.w3.org/2000/svg">
<path d="M10.5047 5.60937C7.52341 5.60937 5.11872 8.01406 5.11872 10.9953C5.11872 13.9766 7.52341 16.3812 10.5047 16.3812C13.4859 16.3812 15.8906 13.9766 15.8906 10.9953C15.8906 8.01406 13.4859 5.60937 10.5047 5.60937ZM10.5047 14.4969C8.5781 14.4969 7.0031 12.9266 7.0031 10.9953C7.0031 9.06406 8.57341 7.49375 10.5047 7.49375C12.4359 7.49375 14.0062 9.06406 14.0062 10.9953C14.0062 12.9266 12.4312 14.4969 10.5047 14.4969ZM17.3672 5.38906C17.3672 6.0875 16.8047 6.64531 16.1109 6.64531C15.4125 6.64531 14.8547 6.08281 14.8547 5.38906C14.8547 4.69531 15.4172 4.13281 16.1109 4.13281C16.8047 4.13281 17.3672 4.69531 17.3672 5.38906ZM20.9343 6.66406C20.8547 4.98125 20.4703 3.49063 19.2375 2.2625C18.0093 1.03438 16.5187 0.650001 14.8359 0.565626C13.1015 0.467189 7.9031 0.467189 6.16872 0.565626C4.4906 0.645314 2.99997 1.02969 1.76716 2.25781C0.53435 3.48594 0.154663 4.97656 0.070288 6.65937C-0.0281494 8.39375 -0.0281494 13.5922 0.070288 15.3266C0.149975 17.0094 0.53435 18.5 1.76716 19.7281C2.99997 20.9562 4.48591 21.3406 6.16872 21.425C7.9031 21.5234 13.1015 21.5234 14.8359 21.425C16.5187 21.3453 18.0093 20.9609 19.2375 19.7281C20.4656 18.5 20.85 17.0094 20.9343 15.3266C21.0328 13.5922 21.0328 8.39844 20.9343 6.66406ZM18.6937 17.1875C18.3281 18.1062 17.6203 18.8141 16.6968 19.1844C15.314 19.7328 12.0328 19.6062 10.5047 19.6062C8.97653 19.6062 5.6906 19.7281 4.31247 19.1844C3.39372 18.8187 2.68591 18.1109 2.3156 17.1875C1.76716 15.8047 1.89372 12.5234 1.89372 10.9953C1.89372 9.46719 1.77185 6.18125 2.3156 4.80312C2.68122 3.88438 3.38904 3.17656 4.31247 2.80625C5.69528 2.25781 8.97653 2.38438 10.5047 2.38438C12.0328 2.38438 15.3187 2.2625 16.6968 2.80625C17.6156 3.17188 18.3234 3.87969 18.6937 4.80312C19.2422 6.18594 19.1156 9.46719 19.1156 10.9953C19.1156 12.5234 19.2422 15.8094 18.6937 17.1875Z" fill="#282828"/>
</svg>
